<mxfile host="app.diagrams.net" modified="2023-10-02T19:42:46.462Z" agent="Mozilla/5.0 (Windows NT 10.0; Win64; x64) AppleWebKit/537.36 (KHTML, like Gecko) Chrome/117.0.0.0 Safari/537.36" etag="akzVj-6OctOt5ouImhEM" version="21.8.0" type="device">
  <diagram id="C5RBs43oDa-KdzZeNtuy" name="Page-1">
    <mxGraphModel dx="989" dy="523" grid="0" gridSize="10" guides="1" tooltips="1" connect="1" arrows="1" fold="1" page="1" pageScale="1" pageWidth="827" pageHeight="1169" math="0" shadow="0">
      <root>
        <mxCell id="WIyWlLk6GJQsqaUBKTNV-0" />
        <mxCell id="WIyWlLk6GJQsqaUBKTNV-1" parent="WIyWlLk6GJQsqaUBKTNV-0" />
        <mxCell id="XnhOhsrcbPEc2k6Vqo-I-157" value="&lt;font style=&quot;font-size: 17px;&quot;&gt;output_mas&lt;/font&gt;" style="rounded=1;whiteSpace=wrap;html=1;fontSize=14;glass=0;strokeWidth=1;shadow=0;" vertex="1" parent="WIyWlLk6GJQsqaUBKTNV-1">
          <mxGeometry x="298" y="609" width="120" height="40" as="geometry" />
        </mxCell>
        <mxCell id="XnhOhsrcbPEc2k6Vqo-I-158" value="Конец" style="rounded=1;whiteSpace=wrap;html=1;fontSize=12;glass=0;strokeWidth=1;shadow=0;" vertex="1" parent="WIyWlLk6GJQsqaUBKTNV-1">
          <mxGeometry x="298" y="1062.83" width="120" height="40" as="geometry" />
        </mxCell>
        <mxCell id="XnhOhsrcbPEc2k6Vqo-I-159" value="Вход. пар-ры:&amp;nbsp;double* mas, int len&lt;br&gt;Возвр. знач.: DataGridView^ grid" style="text;html=1;strokeColor=none;fillColor=none;align=left;verticalAlign=middle;whiteSpace=wrap;rounded=0;" vertex="1" parent="WIyWlLk6GJQsqaUBKTNV-1">
          <mxGeometry x="488" y="614" width="193" height="30" as="geometry" />
        </mxCell>
        <mxCell id="XnhOhsrcbPEc2k6Vqo-I-160" value="" style="endArrow=none;html=1;rounded=0;entryX=1;entryY=0.5;entryDx=0;entryDy=0;exitX=0;exitY=0.5;exitDx=0;exitDy=0;" edge="1" parent="WIyWlLk6GJQsqaUBKTNV-1" source="XnhOhsrcbPEc2k6Vqo-I-159" target="XnhOhsrcbPEc2k6Vqo-I-157">
          <mxGeometry width="50" height="50" relative="1" as="geometry">
            <mxPoint x="398" y="699" as="sourcePoint" />
            <mxPoint x="448" y="649" as="targetPoint" />
          </mxGeometry>
        </mxCell>
        <mxCell id="XnhOhsrcbPEc2k6Vqo-I-161" value="" style="endArrow=none;html=1;rounded=0;" edge="1" parent="WIyWlLk6GJQsqaUBKTNV-1">
          <mxGeometry width="50" height="50" relative="1" as="geometry">
            <mxPoint x="488" y="609" as="sourcePoint" />
            <mxPoint x="488" y="629" as="targetPoint" />
          </mxGeometry>
        </mxCell>
        <mxCell id="XnhOhsrcbPEc2k6Vqo-I-162" value="" style="endArrow=none;html=1;rounded=0;" edge="1" parent="WIyWlLk6GJQsqaUBKTNV-1">
          <mxGeometry width="50" height="50" relative="1" as="geometry">
            <mxPoint x="488" y="649" as="sourcePoint" />
            <mxPoint x="488" y="629" as="targetPoint" />
          </mxGeometry>
        </mxCell>
        <mxCell id="XnhOhsrcbPEc2k6Vqo-I-163" value="" style="endArrow=none;html=1;rounded=0;" edge="1" parent="WIyWlLk6GJQsqaUBKTNV-1">
          <mxGeometry width="50" height="50" relative="1" as="geometry">
            <mxPoint x="488" y="649" as="sourcePoint" />
            <mxPoint x="528" y="649" as="targetPoint" />
          </mxGeometry>
        </mxCell>
        <mxCell id="XnhOhsrcbPEc2k6Vqo-I-164" value="" style="endArrow=none;html=1;rounded=0;" edge="1" parent="WIyWlLk6GJQsqaUBKTNV-1">
          <mxGeometry width="50" height="50" relative="1" as="geometry">
            <mxPoint x="488" y="609" as="sourcePoint" />
            <mxPoint x="528" y="609" as="targetPoint" />
          </mxGeometry>
        </mxCell>
        <mxCell id="XnhOhsrcbPEc2k6Vqo-I-165" value="" style="endArrow=none;html=1;rounded=0;exitX=0.5;exitY=1;exitDx=0;exitDy=0;entryX=0.5;entryY=0;entryDx=0;entryDy=0;" edge="1" parent="WIyWlLk6GJQsqaUBKTNV-1" source="XnhOhsrcbPEc2k6Vqo-I-157">
          <mxGeometry width="50" height="50" relative="1" as="geometry">
            <mxPoint x="526" y="924" as="sourcePoint" />
            <mxPoint x="358" y="699" as="targetPoint" />
          </mxGeometry>
        </mxCell>
        <mxCell id="XnhOhsrcbPEc2k6Vqo-I-166" value="&lt;div style=&quot;&quot;&gt;&lt;font style=&quot;font-size: 12px;&quot;&gt;grid-&amp;gt;RowCount = 2&lt;/font&gt;&lt;/div&gt;&lt;div style=&quot;&quot;&gt;&lt;font style=&quot;font-size: 12px;&quot;&gt;grid-&amp;gt;ColumnCount = len&lt;/font&gt;&lt;/div&gt;" style="rounded=0;whiteSpace=wrap;html=1;" vertex="1" parent="WIyWlLk6GJQsqaUBKTNV-1">
          <mxGeometry x="286" y="695" width="144" height="60" as="geometry" />
        </mxCell>
        <mxCell id="XnhOhsrcbPEc2k6Vqo-I-167" value="" style="endArrow=none;html=1;rounded=0;exitX=0.5;exitY=0;exitDx=0;exitDy=0;entryX=0.5;entryY=1;entryDx=0;entryDy=0;" edge="1" parent="WIyWlLk6GJQsqaUBKTNV-1" target="XnhOhsrcbPEc2k6Vqo-I-166">
          <mxGeometry width="50" height="50" relative="1" as="geometry">
            <mxPoint x="358" y="782.3333333333333" as="sourcePoint" />
            <mxPoint x="603.5" y="731.3333333333333" as="targetPoint" />
          </mxGeometry>
        </mxCell>
        <mxCell id="XnhOhsrcbPEc2k6Vqo-I-168" value="&lt;div&gt;grid-&amp;gt;Rows[0]-&amp;gt;Cells[i]-&amp;gt;Value = String::Format(&quot;[{0}]&quot;, i)&lt;/div&gt;&lt;div&gt;grid-&amp;gt;Rows[1]-&amp;gt;Cells[i]-&amp;gt;Value = mas[i].ToString(&quot;F3&quot;)&lt;/div&gt;" style="rounded=0;whiteSpace=wrap;html=1;" vertex="1" parent="WIyWlLk6GJQsqaUBKTNV-1">
          <mxGeometry x="251" y="879" width="214" height="60" as="geometry" />
        </mxCell>
        <mxCell id="XnhOhsrcbPEc2k6Vqo-I-169" value="" style="endArrow=none;html=1;rounded=0;exitX=0.5;exitY=1;exitDx=0;exitDy=0;entryX=0.5;entryY=0;entryDx=0;entryDy=0;exitPerimeter=0;" edge="1" parent="WIyWlLk6GJQsqaUBKTNV-1" source="XnhOhsrcbPEc2k6Vqo-I-171" target="XnhOhsrcbPEc2k6Vqo-I-168">
          <mxGeometry width="50" height="50" relative="1" as="geometry">
            <mxPoint x="358" y="862.3333333333333" as="sourcePoint" />
            <mxPoint x="603.5" y="893.3333333333333" as="targetPoint" />
          </mxGeometry>
        </mxCell>
        <mxCell id="XnhOhsrcbPEc2k6Vqo-I-170" value="" style="endArrow=none;html=1;rounded=0;exitX=0.5;exitY=1;exitDx=0;exitDy=0;" edge="1" parent="WIyWlLk6GJQsqaUBKTNV-1" source="XnhOhsrcbPEc2k6Vqo-I-168">
          <mxGeometry width="50" height="50" relative="1" as="geometry">
            <mxPoint x="553.5" y="943.3333333333333" as="sourcePoint" />
            <mxPoint x="358.5" y="975.3333333333333" as="targetPoint" />
          </mxGeometry>
        </mxCell>
        <mxCell id="XnhOhsrcbPEc2k6Vqo-I-171" value="i = 0; i &amp;lt; n; ++i" style="strokeWidth=2;html=1;shape=mxgraph.flowchart.loop_limit;whiteSpace=wrap;" vertex="1" parent="WIyWlLk6GJQsqaUBKTNV-1">
          <mxGeometry x="308.00333333333333" y="782.8333333333333" width="100" height="60" as="geometry" />
        </mxCell>
        <mxCell id="XnhOhsrcbPEc2k6Vqo-I-172" value="i" style="strokeWidth=2;html=1;shape=mxgraph.flowchart.loop_limit;whiteSpace=wrap;flipH=1;flipV=1;" vertex="1" parent="WIyWlLk6GJQsqaUBKTNV-1">
          <mxGeometry x="308.00333333333333" y="975.8333333333333" width="100" height="60" as="geometry" />
        </mxCell>
        <mxCell id="XnhOhsrcbPEc2k6Vqo-I-173" value="" style="endArrow=none;html=1;rounded=0;exitX=0.5;exitY=0;exitDx=0;exitDy=0;exitPerimeter=0;entryX=0.5;entryY=0;entryDx=0;entryDy=0;" edge="1" parent="WIyWlLk6GJQsqaUBKTNV-1" source="XnhOhsrcbPEc2k6Vqo-I-172" target="XnhOhsrcbPEc2k6Vqo-I-158">
          <mxGeometry width="50" height="50" relative="1" as="geometry">
            <mxPoint x="270.83333333333326" y="953.8333333333333" as="sourcePoint" />
            <mxPoint x="320.83333333333326" y="903.8333333333333" as="targetPoint" />
          </mxGeometry>
        </mxCell>
      </root>
    </mxGraphModel>
  </diagram>
</mxfile>
